<?xml version="1.0" encoding="UTF-8" standalone="no"?>
<!-- Created with Inkscape (http://www.inkscape.org/) -->

<svg
   width="44.460632mm"
   height="3.302002mm"
   viewBox="0 0 44.460632 3.302002"
   version="1.1"
   id="svg5"
   inkscape:version="1.2.2 (b0a8486541, 2022-12-01)"
   sodipodi:docname="mails.svg"
   xmlns:inkscape="http://www.inkscape.org/namespaces/inkscape"
   xmlns:sodipodi="http://sodipodi.sourceforge.net/DTD/sodipodi-0.dtd"
   xmlns="http://www.w3.org/2000/svg"
   xmlns:svg="http://www.w3.org/2000/svg">
  <sodipodi:namedview
     id="namedview7"
     pagecolor="#ffffff"
     bordercolor="#000000"
     borderopacity="0.25"
     inkscape:showpageshadow="2"
     inkscape:pageopacity="0.0"
     inkscape:pagecheckerboard="0"
     inkscape:deskcolor="#d1d1d1"
     inkscape:document-units="mm"
     showgrid="false"
     inkscape:zoom="1.5518659"
     inkscape:cx="203.30365"
     inkscape:cy="229.40127"
     inkscape:window-width="1819"
     inkscape:window-height="1049"
     inkscape:window-x="101"
     inkscape:window-y="0"
     inkscape:window-maximized="1"
     inkscape:current-layer="layer1" />
  <defs
     id="defs2" />
  <g
     inkscape:label="Layer 1"
     inkscape:groupmode="layer"
     id="layer1"
     transform="translate(-19.572495,-67.530983)">
    <g
       aria-label=""
       id="text275-7"
       style="font-size:3.52778px;font-family:'Source Sans 3';-inkscape-font-specification:'Source Sans 3, ';stroke-width:0.264583">
      <path
         d="m 20.352137,68.52229 c 0.264584,0 0.416278,0.179916 0.416278,0.511528 h -0.892528 c 0.04586,-0.366889 0.264583,-0.511528 0.47625,-0.511528 z m 0.04586,1.562806 c 0.232834,0 0.416278,-0.07408 0.567973,-0.176389 l -0.105833,-0.1905 c -0.119945,0.08114 -0.264584,0.130528 -0.426862,0.130528 -0.289278,0 -0.536222,-0.201084 -0.564445,-0.585612 h 1.146529 c 0.01058,-0.05644 0.01411,-0.112889 0.01411,-0.172861 0,-0.486834 -0.239889,-0.804334 -0.680861,-0.804334 -0.395112,0 -0.776112,0.342195 -0.776112,0.899584 0,0.567973 0.363361,0.899584 0.8255,0.899584 z"
         id="path647" />
      <path
         d="m 21.452806,70.042763 h 0.289278 v -1.241779 c 0.15875,-0.176389 0.303389,-0.264583 0.430389,-0.264583 0.218722,0 0.321028,0.137583 0.321028,0.458611 v 1.047751 h 0.289278 v -1.241779 c 0.15875,-0.176389 0.296333,-0.264583 0.430389,-0.264583 0.215195,0 0.3175,0.137583 0.3175,0.458611 v 1.047751 h 0.289278 v -1.086557 c 0,-0.437444 -0.169333,-0.670278 -0.522111,-0.670278 -0.208139,0 -0.384528,0.134056 -0.564445,0.328084 -0.07056,-0.204611 -0.211667,-0.328084 -0.472723,-0.328084 -0.204611,0 -0.384528,0.127 -0.532694,0.289278 h -0.01058 l -0.02469,-0.246944 h -0.239889 z"
         id="path649" />
      <path
         d="m 24.772448,70.085096 c 0.215195,0 0.398639,-0.109361 0.567973,-0.246944 h 0.01058 l 0.0247,0.204611 h 0.239889 v -1.051279 c 0,-0.426861 -0.179917,-0.705556 -0.596195,-0.705556 -0.275167,0 -0.515056,0.116417 -0.673806,0.22225 l 0.112889,0.197556 c 0.134055,-0.08467 0.313972,-0.176389 0.511528,-0.176389 0.278695,0 0.352778,0.208139 0.356306,0.423334 -0.733779,0.08114 -1.058334,0.261055 -1.058334,0.645583 0,0.310445 0.218722,0.486834 0.504472,0.486834 z m 0.08114,-0.239889 c -0.165805,0 -0.299861,-0.07408 -0.299861,-0.264583 0,-0.222251 0.194028,-0.352778 0.772584,-0.419806 v 0.462139 c -0.165806,0.148167 -0.306917,0.22225 -0.472723,0.22225 z"
         id="path651" />
      <path
         d="m 26.155337,70.042763 h 0.289278 v -1.714501 h -0.289278 z m 0.144639,-2.067279 c 0.112889,0 0.194028,-0.07408 0.194028,-0.1905 0,-0.112889 -0.08114,-0.190501 -0.194028,-0.190501 -0.112889,0 -0.194028,0.07761 -0.194028,0.190501 0,0.116416 0.08114,0.1905 0.194028,0.1905 z"
         id="path653" />
      <path
         d="m 27.330089,70.074513 c 0.07055,0 0.127,-0.01058 0.165805,-0.02822 l -0.0388,-0.218723 c -0.02822,0.0071 -0.04233,0.0071 -0.05997,0.0071 -0.04586,0 -0.08467,-0.03175 -0.08467,-0.123473 v -2.180168 h -0.289278 v 2.159002 c 0,0.246944 0.08819,0.384528 0.306917,0.384528 z"
         id="path655" />
      <path
         d="m 28.074448,68.811568 c 0.112889,0 0.208139,-0.09172 0.208139,-0.218723 0,-0.134055 -0.09525,-0.225778 -0.208139,-0.225778 -0.116417,0 -0.211667,0.09172 -0.211667,0.225778 0,0.127 0.09525,0.218723 0.211667,0.218723 z m 0,1.273528 c 0.112889,0 0.208139,-0.09172 0.208139,-0.218722 0,-0.134056 -0.09525,-0.225778 -0.208139,-0.225778 -0.116417,0 -0.211667,0.09172 -0.211667,0.225778 0,0.127 0.09525,0.218722 0.211667,0.218722 z"
         id="path657" />
      <path
         d="m 30.046481,70.074513 c 0.116417,0 0.229306,-0.02822 0.321028,-0.07408 l -0.05997,-0.204611 c -0.06703,0.03175 -0.134056,0.04233 -0.194028,0.04233 -0.197556,0 -0.264583,-0.119945 -0.264583,-0.328084 v -0.945445 h 0.462139 v -0.236361 h -0.462139 v -0.550334 h -0.243417 l -0.03528,0.550334 -0.268111,0.01764 v 0.218722 h 0.254 v 0.938389 c 0,0.342195 0.123472,0.571501 0.490361,0.5715 z"
         id="path659" />
      <path
         d="m 31.298841,68.52229 c 0.264584,0 0.416278,0.179916 0.416278,0.511528 h -0.892528 c 0.04586,-0.366889 0.264583,-0.511528 0.47625,-0.511528 z m 0.04586,1.562806 c 0.232834,0 0.416278,-0.07408 0.567973,-0.176389 l -0.105833,-0.1905 c -0.119945,0.08114 -0.264584,0.130528 -0.426862,0.130528 -0.289278,0 -0.536222,-0.201084 -0.564445,-0.585612 h 1.146529 c 0.01058,-0.05644 0.01411,-0.112889 0.01411,-0.172861 0,-0.486834 -0.239889,-0.804334 -0.680862,-0.804334 -0.395111,0 -0.776111,0.342195 -0.776111,0.899584 0,0.567973 0.363361,0.899584 0.8255,0.899584 z"
         id="path661" />
      <path
         d="m 32.745232,70.085096 c 0.215194,0 0.398639,-0.109361 0.567972,-0.246944 h 0.01058 l 0.02469,0.204611 h 0.239889 v -1.051279 c 0,-0.426861 -0.179917,-0.705556 -0.596195,-0.705556 -0.275166,0 -0.515055,0.116417 -0.673806,0.22225 l 0.112889,0.197556 c 0.134056,-0.08467 0.313973,-0.176389 0.511529,-0.176389 0.278694,0 0.352778,0.208139 0.356305,0.423334 -0.733778,0.08114 -1.058334,0.261055 -1.058334,0.645583 0,0.310445 0.218723,0.486834 0.504473,0.486834 z m 0.08114,-0.239889 c -0.165806,0 -0.299862,-0.07408 -0.299862,-0.264583 0,-0.222251 0.194028,-0.352778 0.772584,-0.419806 v 0.462139 c -0.165805,0.148167 -0.306917,0.22225 -0.472722,0.22225 z"
         id="path663" />
      <path
         d="m 34.279815,70.085096 c 0.112889,0 0.208139,-0.09172 0.208139,-0.218722 0,-0.134056 -0.09525,-0.225778 -0.208139,-0.225778 -0.116417,0 -0.211667,0.09172 -0.211667,0.225778 0,0.127 0.09525,0.218722 0.211667,0.218722 z"
         id="path665" />
      <path
         d="m 35.00654,70.765958 h 0.289278 v -0.578556 l -0.0071,-0.299862 c 0.15875,0.123473 0.3175,0.197556 0.47625,0.197556 0.391584,0 0.740834,-0.342195 0.740834,-0.924278 0,-0.532695 -0.236362,-0.87489 -0.677334,-0.87489 -0.201083,0 -0.391584,0.109361 -0.546806,0.239889 h -0.01058 l -0.0247,-0.197555 H 35.00654 Z m 0.709084,-0.924279 c -0.112889,0 -0.264583,-0.04939 -0.419806,-0.179916 v -0.899584 c 0.169334,-0.151695 0.313973,-0.232834 0.458612,-0.232834 0.324555,0 0.451555,0.254 0.451555,0.631473 0,0.423333 -0.208139,0.680861 -0.490361,0.680861 z"
         id="path667" />
      <path
         d="m 37.310181,70.085096 c 0.215194,0 0.398639,-0.109361 0.567972,-0.246944 h 0.01058 l 0.02469,0.204611 h 0.239889 v -1.051279 c 0,-0.426861 -0.179916,-0.705556 -0.596195,-0.705556 -0.275166,0 -0.515055,0.116417 -0.673806,0.22225 l 0.112889,0.197556 c 0.134056,-0.08467 0.313973,-0.176389 0.511529,-0.176389 0.278694,0 0.352778,0.208139 0.356305,0.423334 -0.733778,0.08114 -1.058334,0.261055 -1.058334,0.645583 0,0.310445 0.218723,0.486834 0.504473,0.486834 z m 0.08114,-0.239889 c -0.165806,0 -0.299861,-0.07408 -0.299861,-0.264583 0,-0.222251 0.194027,-0.352778 0.772583,-0.419806 v 0.462139 c -0.165805,0.148167 -0.306917,0.22225 -0.472722,0.22225 z"
         id="path669" />
      <path
         d="m 39.063488,70.042763 h 0.338667 l 0.606778,-1.714501 h -0.28575 l -0.324556,0.973667 c -0.04939,0.169333 -0.105833,0.342195 -0.155222,0.504472 h -0.01411 c -0.05292,-0.162277 -0.109361,-0.335139 -0.15875,-0.504472 l -0.324556,-0.973667 h -0.299861 z"
         id="path671" />
      <path
         d="m 40.340547,70.042763 h 0.289278 v -0.451556 l 0.317501,-0.373945 0.500944,0.825501 h 0.317501 l -0.649112,-1.023056 0.5715,-0.691445 h -0.324555 l -0.726723,0.899584 h -0.0071 v -1.696863 h -0.289278 z"
         id="path673" />
      <path
         d="m 42.690052,70.085096 c 0.419806,0 0.793751,-0.328083 0.793751,-0.896056 0,-0.575028 -0.373945,-0.903112 -0.793751,-0.903112 -0.419805,0 -0.79375,0.328084 -0.79375,0.903112 0,0.567973 0.373945,0.896056 0.79375,0.896056 z m 0,-0.239889 c -0.292805,0 -0.493889,-0.264583 -0.493889,-0.656167 0,-0.395111 0.201084,-0.663223 0.493889,-0.663223 0.296334,0 0.49389,0.268112 0.49389,0.663223 0,0.391584 -0.197556,0.656167 -0.49389,0.656167 z"
         id="path675" />
      <path
         d="m 44.291664,70.042763 h 0.338667 l 0.606778,-1.714501 h -0.28575 l -0.324556,0.973667 c -0.04939,0.169333 -0.105833,0.342195 -0.155222,0.504472 h -0.01411 c -0.05292,-0.162277 -0.109361,-0.335139 -0.15875,-0.504472 l -0.324556,-0.973667 h -0.299861 z"
         id="path677" />
      <path
         d="m 46.701143,70.589569 c 0.243417,0 0.462139,-0.0635 0.670278,-0.179917 l -0.08467,-0.186972 c -0.162277,0.08819 -0.352778,0.144639 -0.564444,0.144639 -0.58914,0 -1.023057,-0.381001 -1.023057,-1.051279 0,-0.807862 0.592667,-1.329973 1.206501,-1.329973 0.624417,0 0.952501,0.405695 0.952501,0.956028 0,0.451556 -0.236361,0.723195 -0.451556,0.723195 -0.186972,0 -0.250472,-0.123472 -0.186972,-0.405694 l 0.137583,-0.709084 h -0.194028 l -0.03881,0.144639 h -0.0071 c -0.06703,-0.119945 -0.162278,-0.176389 -0.282222,-0.176389 -0.416278,0 -0.687918,0.448028 -0.687918,0.8255 0,0.324556 0.190501,0.508001 0.433917,0.508001 0.155223,0 0.321028,-0.102306 0.43039,-0.250473 h 0.0071 c 0.02117,0.186973 0.169334,0.275167 0.366889,0.275167 0.328084,0 0.705556,-0.321028 0.705556,-0.945445 0,-0.694973 -0.451556,-1.167695 -1.160639,-1.167695 -0.790223,0 -1.471085,0.617361 -1.471085,1.562806 0,0.821973 0.550334,1.262946 1.241779,1.262946 z m -0.0635,-0.952501 c -0.137584,0 -0.239889,-0.08819 -0.239889,-0.310445 0,-0.264583 0.165805,-0.592667 0.440972,-0.592667 0.09172,0 0.15875,0.03528 0.225778,0.141112 l -0.102305,0.557389 c -0.119945,0.144639 -0.225778,0.204611 -0.324556,0.204611 z"
         id="path679" />
      <path
         d="m 49.0577,70.085096 c 0.236361,0 0.405694,-0.123472 0.564445,-0.310445 h 0.01058 l 0.02469,0.268112 h 0.239889 v -1.714501 h -0.289278 v 1.217084 c -0.162277,0.201083 -0.28575,0.289278 -0.462139,0.289278 -0.225778,0 -0.321028,-0.137584 -0.321028,-0.458612 v -1.04775 h -0.292805 v 1.086556 c 0,0.437445 0.162277,0.670278 0.525639,0.670278 z"
         id="path681" />
      <path
         d="m 50.47587,70.042763 h 0.289278 v -1.241779 c 0.172861,-0.172861 0.292806,-0.264583 0.469195,-0.264583 0.225778,0 0.324556,0.137583 0.324556,0.458611 v 1.047751 h 0.289278 v -1.086557 c 0,-0.437444 -0.162278,-0.670278 -0.522112,-0.670278 -0.236361,0 -0.41275,0.127 -0.575028,0.289278 h -0.01058 l -0.0247,-0.246944 H 50.47587 Z"
         id="path683" />
      <path
         d="m 52.405567,70.042763 h 0.289278 v -1.714501 h -0.289278 z m 0.144639,-2.067279 c 0.112889,0 0.194028,-0.07408 0.194028,-0.1905 0,-0.112889 -0.08114,-0.190501 -0.194028,-0.190501 -0.112889,0 -0.194028,0.07761 -0.194028,0.190501 0,0.116416 0.08114,0.1905 0.194028,0.1905 z"
         id="path685" />
      <path
         d="m 53.128764,69.270179 h 0.81139 v -0.22225 h -0.81139 z"
         id="path687" />
      <path
         d="m 54.9491,70.832985 c 0.532695,0 0.867834,-0.275166 0.867834,-0.592667 0,-0.28575 -0.201083,-0.409222 -0.599722,-0.409222 H 54.8856 c -0.232833,0 -0.303389,-0.07761 -0.303389,-0.186972 0,-0.09525 0.04939,-0.151695 0.109361,-0.204612 0.07761,0.03881 0.172862,0.05997 0.257528,0.05997 0.349251,0 0.627945,-0.229306 0.627945,-0.592667 0,-0.155223 -0.0635,-0.268112 -0.144639,-0.342195 v -0.01411 h 0.356306 v -0.22225 h -0.596195 c -0.0635,-0.02469 -0.148167,-0.04233 -0.243417,-0.04233 -0.34925,0 -0.645583,0.236362 -0.645583,0.610306 0,0.204611 0.109361,0.370417 0.22225,0.462139 v 0.01411 c -0.08819,0.05997 -0.186973,0.172861 -0.186973,0.3175 0,0.134055 0.06703,0.225778 0.151695,0.278694 v 0.01411 c -0.155222,0.105834 -0.250472,0.243417 -0.250472,0.388056 0,0.296334 0.289277,0.462139 0.709083,0.462139 z m 0,-1.527528 c -0.197555,0 -0.363361,-0.15875 -0.363361,-0.409223 0,-0.250472 0.162278,-0.398639 0.363361,-0.398639 0.201084,0 0.363362,0.148167 0.363362,0.398639 0,0.250473 -0.165806,0.409223 -0.363362,0.409223 z m 0.04233,1.326445 c -0.310445,0 -0.497417,-0.116417 -0.497417,-0.299861 0,-0.09878 0.05292,-0.201084 0.176389,-0.289278 0.07408,0.02117 0.155222,0.02822 0.22225,0.02822 h 0.296333 c 0.22225,0 0.345723,0.05292 0.345723,0.211667 0,0.179917 -0.215195,0.34925 -0.543278,0.34925 z"
         id="path689" />
      <path
         d="m 56.148544,70.042763 h 0.289278 v -1.100668 c 0.116417,-0.289278 0.289278,-0.395111 0.433917,-0.395111 0.07056,0 0.105834,0.0071 0.15875,0.02117 l 0.0635,-0.246945 c -0.05644,-0.02469 -0.109361,-0.03528 -0.183444,-0.03528 -0.197556,0 -0.373945,0.137584 -0.486834,0.352778 h -0.01058 l -0.0247,-0.310444 h -0.239889 z"
         id="path691" />
      <path
         d="m 57.683129,70.085096 c 0.215194,0 0.398639,-0.109361 0.567972,-0.246944 h 0.01058 l 0.02469,0.204611 h 0.239889 v -1.051279 c 0,-0.426861 -0.179917,-0.705556 -0.596195,-0.705556 -0.275167,0 -0.515056,0.116417 -0.673806,0.22225 l 0.112889,0.197556 c 0.134056,-0.08467 0.313973,-0.176389 0.511528,-0.176389 0.278695,0 0.352778,0.208139 0.356306,0.423334 -0.733778,0.08114 -1.058334,0.261055 -1.058334,0.645583 0,0.310445 0.218722,0.486834 0.504473,0.486834 z m 0.08114,-0.239889 c -0.165806,0 -0.299862,-0.07408 -0.299862,-0.264583 0,-0.222251 0.194028,-0.352778 0.772584,-0.419806 v 0.462139 c -0.165806,0.148167 -0.306917,0.22225 -0.472722,0.22225 z"
         id="path693" />
      <path
         d="m 58.886104,70.042763 h 1.298223 v -0.236362 h -0.931334 l 0.903112,-1.322917 v -0.155222 h -1.171223 v 0.236361 h 0.804334 l -0.903112,1.322917 z"
         id="path695" />
      <path
         d="m 60.717017,70.085096 c 0.112889,0 0.208139,-0.09172 0.208139,-0.218722 0,-0.134056 -0.09525,-0.225778 -0.208139,-0.225778 -0.116416,0 -0.211666,0.09172 -0.211666,0.225778 0,0.127 0.09525,0.218722 0.211666,0.218722 z"
         id="path697" />
      <path
         d="m 61.838852,70.085096 c 0.215195,0 0.398639,-0.109361 0.567973,-0.246944 h 0.01058 l 0.0247,0.204611 h 0.239889 v -1.051279 c 0,-0.426861 -0.179917,-0.705556 -0.596195,-0.705556 -0.275167,0 -0.515056,0.116417 -0.673806,0.22225 l 0.112889,0.197556 c 0.134055,-0.08467 0.313972,-0.176389 0.511528,-0.176389 0.278694,0 0.352778,0.208139 0.356306,0.423334 -0.733779,0.08114 -1.058334,0.261055 -1.058334,0.645583 0,0.310445 0.218722,0.486834 0.504472,0.486834 z m 0.08114,-0.239889 c -0.165806,0 -0.299861,-0.07408 -0.299861,-0.264583 0,-0.222251 0.194028,-0.352778 0.772584,-0.419806 v 0.462139 c -0.165806,0.148167 -0.306917,0.22225 -0.472723,0.22225 z"
         id="path699" />
      <path
         d="m 63.712102,70.074513 c 0.116417,0 0.229306,-0.02822 0.321028,-0.07408 l -0.05997,-0.204611 c -0.06703,0.03175 -0.134056,0.04233 -0.194028,0.04233 -0.197556,0 -0.264584,-0.119945 -0.264584,-0.328084 v -0.945445 h 0.46214 v -0.236361 h -0.46214 V 67.777928 H 63.27113 l -0.03528,0.550334 -0.268111,0.01764 v 0.218722 h 0.254 v 0.938389 c 0,0.342195 0.123472,0.571501 0.490361,0.571501 z"
         id="path701" />
    </g>
  </g>
</svg>
