<?xml version="1.0" encoding="UTF-8" standalone="no"?>
<!-- Created with Inkscape (http://www.inkscape.org/) -->

<svg
   width="63.902218mm"
   height="3.302002mm"
   viewBox="0 0 63.902218 3.302002"
   version="1.1"
   id="svg5"
   inkscape:version="1.2.2 (b0a8486541, 2022-12-01)"
   sodipodi:docname="mails.svg"
   xmlns:inkscape="http://www.inkscape.org/namespaces/inkscape"
   xmlns:sodipodi="http://sodipodi.sourceforge.net/DTD/sodipodi-0.dtd"
   xmlns="http://www.w3.org/2000/svg"
   xmlns:svg="http://www.w3.org/2000/svg">
  <sodipodi:namedview
     id="namedview7"
     pagecolor="#ffffff"
     bordercolor="#000000"
     borderopacity="0.25"
     inkscape:showpageshadow="2"
     inkscape:pageopacity="0.0"
     inkscape:pagecheckerboard="0"
     inkscape:deskcolor="#d1d1d1"
     inkscape:document-units="mm"
     showgrid="false"
     inkscape:zoom="1.5518659"
     inkscape:cx="203.30365"
     inkscape:cy="229.40127"
     inkscape:window-width="1819"
     inkscape:window-height="1049"
     inkscape:window-x="101"
     inkscape:window-y="0"
     inkscape:window-maximized="1"
     inkscape:current-layer="layer1" />
  <defs
     id="defs2" />
  <g
     inkscape:label="Layer 1"
     inkscape:groupmode="layer"
     id="layer1"
     transform="translate(-20.01482,-55.328762)">
    <g
       aria-label=""
       id="text113-3"
       style="font-style:italic;font-size:3.52778px;font-family:'Source Sans 3';-inkscape-font-specification:'Source Sans 3 Italic';stroke-width:0.264583">
      <path
         d="m 20.794463,56.320069 c 0.264583,0 0.416278,0.179916 0.416278,0.511528 h -0.892528 c 0.04586,-0.366889 0.264583,-0.511528 0.47625,-0.511528 z m 0.04586,1.562806 c 0.232833,0 0.416278,-0.07408 0.567973,-0.176389 l -0.105834,-0.1905 c -0.119944,0.08114 -0.264583,0.130528 -0.426861,0.130528 -0.289278,0 -0.536223,-0.201084 -0.564445,-0.585612 h 1.146529 c 0.01058,-0.05644 0.01411,-0.112889 0.01411,-0.172861 0,-0.486833 -0.239889,-0.804334 -0.680862,-0.804334 -0.395111,0 -0.776112,0.342195 -0.776112,0.899584 0,0.567973 0.363362,0.899584 0.825501,0.899584 z"
         style="font-style:normal;-inkscape-font-specification:'Source Sans 3, '"
         id="path358" />
      <path
         d="m 21.895131,57.840542 h 0.289278 v -1.241779 c 0.15875,-0.176389 0.303389,-0.264583 0.430389,-0.264583 0.218723,0 0.321028,0.137583 0.321028,0.458611 v 1.047751 h 0.289278 v -1.241779 c 0.15875,-0.176389 0.296334,-0.264583 0.43039,-0.264583 0.215194,0 0.3175,0.137583 0.3175,0.458611 v 1.047751 h 0.289278 v -1.086556 c 0,-0.437445 -0.169334,-0.670279 -0.522112,-0.670279 -0.208139,0 -0.384528,0.134056 -0.564445,0.328084 -0.07055,-0.204611 -0.211666,-0.328084 -0.472722,-0.328084 -0.204611,0 -0.384528,0.127 -0.532695,0.289278 h -0.01058 l -0.02469,-0.246944 h -0.239889 z"
         style="font-style:normal;-inkscape-font-specification:'Source Sans 3, '"
         id="path360" />
      <path
         d="m 25.214774,57.882875 c 0.215194,0 0.398639,-0.109361 0.567972,-0.246944 h 0.01058 l 0.02469,0.204611 h 0.239889 v -1.051279 c 0,-0.426861 -0.179916,-0.705556 -0.596195,-0.705556 -0.275166,0 -0.515055,0.116417 -0.673806,0.222251 l 0.112889,0.197555 c 0.134056,-0.08467 0.313973,-0.176389 0.511529,-0.176389 0.278694,0 0.352778,0.208139 0.356305,0.423334 -0.733778,0.08114 -1.058334,0.261056 -1.058334,0.645584 0,0.310444 0.218723,0.486833 0.504473,0.486833 z m 0.08114,-0.239889 c -0.165806,0 -0.299861,-0.07408 -0.299861,-0.264583 0,-0.22225 0.194027,-0.352778 0.772583,-0.419806 v 0.462139 c -0.165805,0.148167 -0.306917,0.22225 -0.472722,0.22225 z"
         style="font-style:normal;-inkscape-font-specification:'Source Sans 3, '"
         id="path362" />
      <path
         d="m 26.597663,57.840542 h 0.289278 v -1.714501 h -0.289278 z m 0.144639,-2.067279 c 0.112889,0 0.194028,-0.07408 0.194028,-0.1905 0,-0.112889 -0.08114,-0.190501 -0.194028,-0.190501 -0.112889,0 -0.194028,0.07761 -0.194028,0.190501 0,0.116416 0.08114,0.1905 0.194028,0.1905 z"
         style="font-style:normal;-inkscape-font-specification:'Source Sans 3, '"
         id="path364" />
      <path
         d="m 27.772414,57.872292 c 0.07056,0 0.127,-0.01058 0.165806,-0.02822 l -0.03881,-0.218723 c -0.02822,0.0071 -0.04233,0.0071 -0.05997,0.0071 -0.04586,0 -0.08467,-0.03175 -0.08467,-0.123472 v -2.180169 h -0.289278 v 2.159002 c 0,0.246944 0.0882,0.384528 0.306917,0.384528 z"
         style="font-style:normal;-inkscape-font-specification:'Source Sans 3, '"
         id="path366" />
      <path
         d="m 28.516773,56.609347 c 0.112889,0 0.208139,-0.09172 0.208139,-0.218723 0,-0.134055 -0.09525,-0.225778 -0.208139,-0.225778 -0.116416,0 -0.211666,0.09172 -0.211666,0.225778 0,0.127 0.09525,0.218723 0.211666,0.218723 z m 0,1.273528 c 0.112889,0 0.208139,-0.09172 0.208139,-0.218722 0,-0.134056 -0.09525,-0.225778 -0.208139,-0.225778 -0.116416,0 -0.211666,0.09172 -0.211666,0.225778 0,0.127 0.09525,0.218722 0.211666,0.218722 z"
         style="font-style:normal;-inkscape-font-specification:'Source Sans 3, '"
         id="path368" />
      <path
         d="m 30.629918,57.882875 c 0.218722,0 0.409223,-0.08819 0.550334,-0.225778 l -0.127,-0.176389 c -0.102306,0.09525 -0.243417,0.162278 -0.398639,0.162278 -0.317501,0 -0.532695,-0.264583 -0.532695,-0.656167 0,-0.395111 0.229305,-0.663223 0.536222,-0.663223 0.148167,0 0.257528,0.05644 0.345723,0.137584 l 0.144639,-0.176389 c -0.116417,-0.116417 -0.275167,-0.201084 -0.500945,-0.201084 -0.440972,0 -0.825501,0.328084 -0.825501,0.903112 0,0.567973 0.349251,0.896056 0.807862,0.896056 z"
         style="font-style:normal;-inkscape-font-specification:'Source Sans 3, '"
         id="path370" />
      <path
         d="M 31.557722,57.840542 H 31.847 v -1.241779 c 0.172861,-0.172861 0.292806,-0.264583 0.469195,-0.264583 0.225778,0 0.324556,0.137583 0.324556,0.458611 v 1.047751 h 0.289277 v -1.086556 c 0,-0.437445 -0.162277,-0.670279 -0.522111,-0.670279 -0.236361,0 -0.409222,0.127 -0.5715,0.282223 L 31.847,56.013152 v -0.68439 h -0.289278 z"
         style="font-style:normal;-inkscape-font-specification:'Source Sans 3, '"
         id="path372" />
      <path
         d="m 33.476836,57.840542 h 0.289278 v -1.100668 c 0.116417,-0.289278 0.289278,-0.395111 0.433917,-0.395111 0.07056,0 0.105833,0.0071 0.15875,0.02117 l 0.0635,-0.246945 c -0.05644,-0.02469 -0.109361,-0.03528 -0.183444,-0.03528 -0.197556,0 -0.373945,0.137584 -0.486834,0.352778 h -0.01058 l -0.0247,-0.310444 h -0.239889 z"
         style="font-style:normal;-inkscape-font-specification:'Source Sans 3, '"
         id="path374" />
      <path
         d="m 34.700976,57.840542 h 0.289278 v -1.714501 h -0.289278 z m 0.144639,-2.067279 c 0.112889,0 0.194028,-0.07408 0.194028,-0.1905 0,-0.112889 -0.08114,-0.190501 -0.194028,-0.190501 -0.112889,0 -0.194028,0.07761 -0.194028,0.190501 0,0.116416 0.08114,0.1905 0.194028,0.1905 z"
         style="font-style:normal;-inkscape-font-specification:'Source Sans 3, '"
         id="path376" />
      <path
         d="m 36.016839,57.882875 c 0.405695,0 0.627945,-0.232833 0.627945,-0.511528 0,-0.310445 -0.261055,-0.426861 -0.529167,-0.522111 -0.211667,-0.07408 -0.363361,-0.137584 -0.363361,-0.292806 0,-0.130528 0.09878,-0.246945 0.313972,-0.246945 0.155223,0 0.278695,0.04939 0.398639,0.134056 l 0.134056,-0.165806 c -0.134056,-0.112889 -0.321028,-0.194028 -0.532695,-0.194028 -0.373944,0 -0.592667,0.211667 -0.592667,0.486834 0,0.282222 0.246945,0.405695 0.504473,0.497417 0.194028,0.07056 0.388056,0.144639 0.388056,0.321028 0,0.148167 -0.112889,0.268111 -0.338667,0.268111 -0.211667,0 -0.366889,-0.06703 -0.515056,-0.1905 l -0.134056,0.169334 c 0.15875,0.155222 0.388056,0.246944 0.638528,0.246944 z"
         style="font-style:normal;-inkscape-font-specification:'Source Sans 3, '"
         id="path378" />
      <path
         d="m 37.516147,57.872292 c 0.116417,0 0.229306,-0.02822 0.321028,-0.07408 l -0.05997,-0.204611 c -0.06703,0.03175 -0.134056,0.04233 -0.194028,0.04233 -0.197556,0 -0.264584,-0.119945 -0.264584,-0.328084 v -0.945445 h 0.462139 v -0.236361 h -0.462139 v -0.550334 h -0.243417 l -0.03528,0.550334 -0.268112,0.01764 v 0.218722 h 0.254 v 0.938389 c 0,0.342195 0.123473,0.571501 0.490362,0.571501 z"
         style="font-style:normal;-inkscape-font-specification:'Source Sans 3, '"
         id="path380" />
      <path
         d="m 38.786145,57.882875 c 0.419805,0 0.79375,-0.328083 0.79375,-0.896056 0,-0.575028 -0.373945,-0.903112 -0.79375,-0.903112 -0.419806,0 -0.793751,0.328084 -0.793751,0.903112 0,0.567973 0.373945,0.896056 0.793751,0.896056 z m 0,-0.239889 c -0.292806,0 -0.49389,-0.264583 -0.49389,-0.656167 0,-0.395111 0.201084,-0.663223 0.49389,-0.663223 0.296333,0 0.493889,0.268112 0.493889,0.663223 0,0.391584 -0.197556,0.656167 -0.493889,0.656167 z"
         style="font-style:normal;-inkscape-font-specification:'Source Sans 3, '"
         id="path382" />
      <path
         d="m 40.03145,58.563737 h 0.289278 v -0.578556 l -0.0071,-0.299861 c 0.15875,0.123472 0.3175,0.197555 0.47625,0.197555 0.391584,0 0.740834,-0.342194 0.740834,-0.924278 0,-0.532695 -0.236362,-0.87489 -0.677334,-0.87489 -0.201084,0 -0.391584,0.109362 -0.546806,0.239889 h -0.01058 l -0.0247,-0.197555 H 40.03145 Z m 0.709084,-0.924279 c -0.112889,0 -0.264584,-0.04939 -0.419806,-0.179916 v -0.899584 c 0.169334,-0.151695 0.313973,-0.232834 0.458612,-0.232834 0.324555,0 0.451555,0.254 0.451555,0.631473 0,0.423333 -0.208139,0.680861 -0.490361,0.680861 z"
         style="font-style:normal;-inkscape-font-specification:'Source Sans 3, '"
         id="path384" />
      <path
         d="m 41.98937,57.840542 h 0.289278 v -1.241779 c 0.172861,-0.172861 0.292806,-0.264583 0.469195,-0.264583 0.225778,0 0.324556,0.137583 0.324556,0.458611 v 1.047751 h 0.289278 v -1.086556 c 0,-0.437445 -0.162278,-0.670279 -0.522112,-0.670279 -0.236361,0 -0.409222,0.127 -0.5715,0.282223 l 0.01058,-0.352778 v -0.68439 H 41.98937 Z"
         style="font-style:normal;-inkscape-font-specification:'Source Sans 3, '"
         id="path386" />
      <path
         d="m 44.06018,57.882875 c 0.112889,0 0.208139,-0.09172 0.208139,-0.218722 0,-0.134056 -0.09525,-0.225778 -0.208139,-0.225778 -0.116417,0 -0.211667,0.09172 -0.211667,0.225778 0,0.127 0.09525,0.218722 0.211667,0.218722 z"
         style="font-style:normal;-inkscape-font-specification:'Source Sans 3, '"
         id="path388" />
      <path
         d="m 45.545376,57.882875 c 0.391584,0 0.740834,-0.342194 0.740834,-0.927806 0,-0.529167 -0.236361,-0.871362 -0.680862,-0.871362 -0.1905,0 -0.381,0.102306 -0.536222,0.239889 l 0.0071,-0.310444 v -0.68439 h -0.289278 v 2.51178 h 0.232834 l 0.02469,-0.176389 h 0.01058 c 0.151694,0.137583 0.331611,0.218722 0.490361,0.218722 z m -0.04939,-0.243417 c -0.112889,0 -0.268111,-0.04939 -0.419806,-0.179916 v -0.899584 c 0.162278,-0.151695 0.313973,-0.232834 0.458612,-0.232834 0.324555,0 0.451556,0.254 0.451556,0.631473 0,0.423333 -0.208139,0.680861 -0.490362,0.680861 z"
         style="font-style:normal;-inkscape-font-specification:'Source Sans 3, '"
         id="path390" />
      <path
         d="m 47.238709,57.882875 c 0.236361,0 0.405695,-0.123472 0.564445,-0.310444 h 0.01058 l 0.02469,0.268111 h 0.239889 v -1.714501 h -0.289278 v 1.217084 c -0.162278,0.201083 -0.28575,0.289278 -0.462139,0.289278 -0.225778,0 -0.321028,-0.137584 -0.321028,-0.458612 v -1.04775 H 46.71307 v 1.086556 c 0,0.437445 0.162278,0.670278 0.525639,0.670278 z"
         style="font-style:normal;-inkscape-font-specification:'Source Sans 3, '"
         id="path392" />
      <path
         d="m 48.656879,57.840542 h 0.289278 v -1.241779 c 0.172862,-0.172861 0.292806,-0.264583 0.469195,-0.264583 0.225778,0 0.324556,0.137583 0.324556,0.458611 v 1.047751 h 0.289278 v -1.086556 c 0,-0.437445 -0.162278,-0.670279 -0.522112,-0.670279 -0.236361,0 -0.409222,0.127 -0.5715,0.282223 l 0.01058,-0.352778 v -0.68439 h -0.289278 z"
         style="font-style:normal;-inkscape-font-specification:'Source Sans 3, '"
         id="path394" />
      <path
         d="m 50.882911,57.872292 c 0.07056,0 0.127,-0.01058 0.165806,-0.02822 l -0.03881,-0.218723 c -0.02822,0.0071 -0.04233,0.0071 -0.05997,0.0071 -0.04586,0 -0.08467,-0.03175 -0.08467,-0.123472 v -2.180169 h -0.289278 v 2.159002 c 0,0.246944 0.08819,0.384528 0.306917,0.384528 z"
         style="font-style:normal;-inkscape-font-specification:'Source Sans 3, '"
         id="path396" />
      <path
         d="m 51.475574,57.840542 h 0.289278 v -1.241779 c 0.172862,-0.172861 0.292806,-0.264583 0.469195,-0.264583 0.225778,0 0.324556,0.137583 0.324556,0.458611 v 1.047751 h 0.289278 v -1.086556 c 0,-0.437445 -0.162278,-0.670279 -0.522112,-0.670279 -0.236361,0 -0.409222,0.127 -0.5715,0.282223 l 0.01058,-0.352778 v -0.68439 h -0.289278 z"
         style="font-style:normal;-inkscape-font-specification:'Source Sans 3, '"
         id="path398" />
      <path
         d="m 54.043799,56.320069 c 0.264584,0 0.416278,0.179916 0.416278,0.511528 h -0.892528 c 0.04586,-0.366889 0.264583,-0.511528 0.47625,-0.511528 z m 0.04586,1.562806 c 0.232834,0 0.416278,-0.07408 0.567973,-0.176389 l -0.105834,-0.1905 c -0.119944,0.08114 -0.264583,0.130528 -0.426861,0.130528 -0.289278,0 -0.536223,-0.201084 -0.564445,-0.585612 h 1.146529 c 0.01058,-0.05644 0.01411,-0.112889 0.01411,-0.172861 0,-0.486833 -0.239889,-0.804334 -0.680862,-0.804334 -0.395111,0 -0.776111,0.342195 -0.776111,0.899584 0,0.567973 0.363361,0.899584 0.825501,0.899584 z"
         style="font-style:normal;-inkscape-font-specification:'Source Sans 3, '"
         id="path400" />
      <path
         d="m 55.451387,57.872292 c 0.07056,0 0.127,-0.01058 0.165806,-0.02822 l -0.03881,-0.218723 c -0.02822,0.0071 -0.04233,0.0071 -0.05997,0.0071 -0.04586,0 -0.08467,-0.03175 -0.08467,-0.123472 V 55.328762 H 55.14447 v 2.159002 c 0,0.246944 0.08819,0.384528 0.306917,0.384528 z"
         style="font-style:normal;-inkscape-font-specification:'Source Sans 3, '"
         id="path402" />
      <path
         d="m 56.350965,57.872292 c 0.07056,0 0.127,-0.01058 0.165806,-0.02822 l -0.03881,-0.218723 c -0.02822,0.0071 -0.04233,0.0071 -0.05997,0.0071 -0.04586,0 -0.08467,-0.03175 -0.08467,-0.123472 v -2.180169 h -0.289278 v 2.159002 c 0,0.246944 0.0882,0.384528 0.306917,0.384528 z"
         style="font-style:normal;-inkscape-font-specification:'Source Sans 3, '"
         id="path404" />
      <path
         d="m 57.592742,56.320069 c 0.264583,0 0.416278,0.179916 0.416278,0.511528 h -0.892529 c 0.04586,-0.366889 0.264584,-0.511528 0.476251,-0.511528 z m 0.04586,1.562806 c 0.232833,0 0.416278,-0.07408 0.567972,-0.176389 l -0.105833,-0.1905 c -0.119945,0.08114 -0.264583,0.130528 -0.426861,0.130528 -0.289278,0 -0.536223,-0.201084 -0.564445,-0.585612 h 1.146528 c 0.01058,-0.05644 0.01411,-0.112889 0.01411,-0.172861 0,-0.486833 -0.239889,-0.804334 -0.680861,-0.804334 -0.395111,0 -0.776112,0.342195 -0.776112,0.899584 0,0.567973 0.363362,0.899584 0.825502,0.899584 z"
         style="font-style:normal;-inkscape-font-specification:'Source Sans 3, '"
         id="path406" />
      <path
         d="m 58.693413,57.840542 h 0.289278 v -1.100668 c 0.116416,-0.289278 0.289278,-0.395111 0.433917,-0.395111 0.07056,0 0.105833,0.0071 0.15875,0.02117 l 0.0635,-0.246945 c -0.05644,-0.02469 -0.109361,-0.03528 -0.183445,-0.03528 -0.197555,0 -0.373944,0.137584 -0.486833,0.352778 H 58.958 l -0.02469,-0.310444 h -0.239889 z"
         style="font-style:normal;-inkscape-font-specification:'Source Sans 3, '"
         id="path408" />
      <path
         d="m 61.04997,58.387348 c 0.243417,0 0.462139,-0.0635 0.670278,-0.179917 l -0.08467,-0.186972 c -0.162278,0.08819 -0.352778,0.144639 -0.564445,0.144639 -0.589139,0 -1.023056,-0.381001 -1.023056,-1.051279 0,-0.807861 0.592667,-1.329973 1.206501,-1.329973 0.624417,0 0.9525,0.405695 0.9525,0.956028 0,0.451556 -0.236361,0.723195 -0.451556,0.723195 -0.186972,0 -0.250472,-0.123472 -0.186972,-0.405694 l 0.137583,-0.709084 h -0.194028 l -0.03881,0.144639 h -0.0071 c -0.06703,-0.119945 -0.162278,-0.176389 -0.282222,-0.176389 -0.416278,0 -0.687917,0.448028 -0.687917,0.8255 0,0.324556 0.1905,0.508001 0.433917,0.508001 0.155222,0 0.321028,-0.102306 0.430389,-0.250473 h 0.0071 c 0.02117,0.186973 0.169334,0.275167 0.36689,0.275167 0.328083,0 0.705556,-0.321028 0.705556,-0.945445 0,-0.694973 -0.451556,-1.167695 -1.16064,-1.167695 -0.790223,0 -1.471084,0.617361 -1.471084,1.562806 0,0.821973 0.550333,1.262946 1.241778,1.262946 z m -0.0635,-0.952501 c -0.137583,0 -0.239889,-0.08819 -0.239889,-0.310445 0,-0.264583 0.165806,-0.592667 0.440973,-0.592667 0.09172,0 0.15875,0.03528 0.225778,0.141112 l -0.102306,0.557389 c -0.119945,0.144639 -0.225778,0.204611 -0.324556,0.204611 z"
         style="font-style:normal;-inkscape-font-specification:'Source Sans 3, '"
         id="path410" />
      <path
         d="m 62.905582,57.840542 h 0.289278 v -1.241779 c 0.15875,-0.176389 0.303389,-0.264583 0.430389,-0.264583 0.218723,0 0.321028,0.137583 0.321028,0.458611 v 1.047751 h 0.289278 v -1.241779 c 0.158751,-0.176389 0.296334,-0.264583 0.43039,-0.264583 0.215194,0 0.3175,0.137583 0.3175,0.458611 v 1.047751 h 0.289278 v -1.086556 c 0,-0.437445 -0.169334,-0.670279 -0.522112,-0.670279 -0.208139,0 -0.384528,0.134056 -0.564444,0.328084 -0.07056,-0.204611 -0.211667,-0.328084 -0.472723,-0.328084 -0.204611,0 -0.384528,0.127 -0.532695,0.289278 h -0.01058 l -0.0247,-0.246944 H 62.90558 Z"
         style="font-style:normal;-inkscape-font-specification:'Source Sans 3, '"
         id="path412" />
      <path
         d="m 66.479224,56.320069 c 0.264583,0 0.416278,0.179916 0.416278,0.511528 h -0.892528 c 0.04586,-0.366889 0.264583,-0.511528 0.47625,-0.511528 z m 0.04586,1.562806 c 0.232834,0 0.416278,-0.07408 0.567973,-0.176389 l -0.105834,-0.1905 c -0.119944,0.08114 -0.264583,0.130528 -0.426861,0.130528 -0.289278,0 -0.536223,-0.201084 -0.564445,-0.585612 h 1.146529 c 0.01058,-0.05644 0.01411,-0.112889 0.01411,-0.172861 0,-0.486833 -0.239889,-0.804334 -0.680862,-0.804334 -0.395111,0 -0.776111,0.342195 -0.776111,0.899584 0,0.567973 0.363361,0.899584 0.8255,0.899584 z"
         style="font-style:normal;-inkscape-font-specification:'Source Sans 3, '"
         id="path414" />
      <path
         d="m 68.165503,57.882875 c 0.201083,0 0.384528,-0.112889 0.518583,-0.243417 h 0.01058 l 0.02469,0.201084 h 0.239889 v -2.51178 h -0.292806 v 0.659695 l 0.01411,0.292806 c -0.151695,-0.123472 -0.282223,-0.197556 -0.479779,-0.197556 -0.391583,0 -0.744361,0.345723 -0.744361,0.903112 0,0.5715 0.278694,0.896056 0.709084,0.896056 z m 0.0635,-0.243417 c -0.299862,0 -0.472723,-0.246944 -0.472723,-0.656167 0,-0.391583 0.218723,-0.656167 0.493889,-0.656167 0.141112,0 0.271639,0.04939 0.416278,0.179917 v 0.896056 c -0.141111,0.15875 -0.278694,0.236361 -0.437444,0.236361 z"
         style="font-style:normal;-inkscape-font-specification:'Source Sans 3, '"
         id="path416" />
      <path
         d="m 70.038756,57.882875 c 0.236361,0 0.405695,-0.123472 0.564445,-0.310444 h 0.01058 l 0.0247,0.268111 h 0.239889 v -1.714501 h -0.28928 v 1.217084 c -0.162278,0.201083 -0.285751,0.289278 -0.46214,0.289278 -0.225777,0 -0.321028,-0.137584 -0.321028,-0.458612 v -1.04775 h -0.292805 v 1.086556 c 0,0.437445 0.162278,0.670278 0.525639,0.670278 z"
         style="font-style:normal;-inkscape-font-specification:'Source Sans 3, '"
         id="path418" />
      <path
         d="m 71.456924,57.840542 h 0.289278 v -1.241779 c 0.172862,-0.172861 0.292806,-0.264583 0.469195,-0.264583 0.225778,0 0.324556,0.137583 0.324556,0.458611 v 1.047751 h 0.289278 v -1.086556 c 0,-0.437445 -0.162278,-0.670279 -0.522112,-0.670279 -0.236361,0 -0.41275,0.127 -0.575028,0.289278 h -0.01058 l -0.02469,-0.246944 h -0.239889 z"
         style="font-style:normal;-inkscape-font-specification:'Source Sans 3, '"
         id="path420" />
      <path
         d="m 73.386623,57.840542 h 0.289278 v -1.714501 h -0.289278 z m 0.144639,-2.067279 c 0.112889,0 0.194028,-0.07408 0.194028,-0.1905 0,-0.112889 -0.08114,-0.190501 -0.194028,-0.190501 -0.112889,0 -0.194028,0.07761 -0.194028,0.190501 0,0.116416 0.08114,0.1905 0.194028,0.1905 z"
         style="font-style:normal;-inkscape-font-specification:'Source Sans 3, '"
         id="path422" />
      <path
         d="m 74.833015,58.630765 c 0.532695,0 0.867834,-0.275167 0.867834,-0.592667 0,-0.285751 -0.201083,-0.409223 -0.599722,-0.409223 h -0.331612 c -0.232833,0 -0.303389,-0.07761 -0.303389,-0.186972 0,-0.09525 0.04939,-0.151695 0.109361,-0.204612 0.07761,0.03881 0.172862,0.05997 0.257528,0.05997 0.34925,0 0.627945,-0.229306 0.627945,-0.592667 0,-0.155223 -0.0635,-0.268112 -0.144639,-0.342195 v -0.01411 h 0.356306 v -0.22225 h -0.596195 c -0.0635,-0.0247 -0.148167,-0.04233 -0.243417,-0.04233 -0.34925,0 -0.645584,0.236362 -0.645584,0.610306 0,0.204612 0.109362,0.370417 0.222251,0.46214 v 0.01411 c -0.08819,0.05997 -0.186973,0.172861 -0.186973,0.3175 0,0.134055 0.06703,0.225778 0.151695,0.278694 v 0.01411 c -0.155222,0.105833 -0.250473,0.243416 -0.250473,0.388055 0,0.296334 0.289278,0.46214 0.709084,0.462141 z m 0,-1.527529 c -0.197555,0 -0.363361,-0.15875 -0.363361,-0.409223 0,-0.250472 0.162278,-0.398639 0.363361,-0.398639 0.201084,0 0.363362,0.148167 0.363362,0.398639 0,0.250473 -0.165806,0.409223 -0.363362,0.409223 z m 0.04233,1.326445 c -0.310445,0 -0.497417,-0.116417 -0.497417,-0.299861 0,-0.09878 0.05292,-0.201084 0.176389,-0.289278 0.07408,0.02117 0.155222,0.02822 0.22225,0.02822 H 75.0729 c 0.22225,0 0.345723,0.05292 0.345723,0.211667 0,0.179917 -0.215195,0.34925 -0.543278,0.34925 z"
         style="font-style:normal;-inkscape-font-specification:'Source Sans 3, '"
         id="path424" />
      <path
         d="m 76.032459,57.840542 h 0.289278 v -1.100668 c 0.116417,-0.289278 0.289278,-0.395111 0.433917,-0.395111 0.07056,0 0.105834,0.0071 0.15875,0.02117 l 0.0635,-0.246945 c -0.05644,-0.02469 -0.109361,-0.03528 -0.183444,-0.03528 -0.197556,0 -0.373945,0.137584 -0.486834,0.352778 h -0.01058 l -0.0247,-0.310444 h -0.239889 z"
         style="font-style:normal;-inkscape-font-specification:'Source Sans 3, '"
         id="path426" />
      <path
         d="m 77.567044,57.882875 c 0.215194,0 0.398639,-0.109361 0.567972,-0.246944 h 0.01058 l 0.02469,0.204611 h 0.239889 v -1.051279 c 0,-0.426861 -0.179917,-0.705556 -0.596195,-0.705556 -0.275167,0 -0.515056,0.116417 -0.673806,0.222251 l 0.112889,0.197555 c 0.134056,-0.08467 0.313973,-0.176389 0.511528,-0.176389 0.278695,0 0.352778,0.208139 0.356306,0.423334 -0.733778,0.08114 -1.058334,0.261056 -1.058334,0.645584 0,0.310444 0.218722,0.486833 0.504473,0.486833 z m 0.08114,-0.239889 c -0.165805,0 -0.299861,-0.07408 -0.299861,-0.264583 0,-0.22225 0.194028,-0.352778 0.772584,-0.419806 v 0.462139 c -0.165806,0.148167 -0.306917,0.22225 -0.472723,0.22225 z"
         style="font-style:normal;-inkscape-font-specification:'Source Sans 3, '"
         id="path428" />
      <path
         d="m 78.770015,57.840542 h 1.298223 v -0.236361 h -0.931334 l 0.903112,-1.322918 v -0.155222 h -1.171223 v 0.236361 h 0.804334 l -0.903112,1.322918 z"
         style="font-style:normal;-inkscape-font-specification:'Source Sans 3, '"
         id="path430" />
      <path
         d="m 80.600932,57.882875 c 0.112889,0 0.208139,-0.09172 0.208139,-0.218722 0,-0.134056 -0.09525,-0.225778 -0.208139,-0.225778 -0.116416,0 -0.211667,0.09172 -0.211667,0.225778 0,0.127 0.09525,0.218722 0.211667,0.218722 z"
         style="font-style:normal;-inkscape-font-specification:'Source Sans 3, '"
         id="path432" />
      <path
         d="m 81.722767,57.882875 c 0.215195,0 0.398639,-0.109361 0.567973,-0.246944 h 0.01058 l 0.02469,0.204611 h 0.23989 v -1.051279 c 0,-0.426861 -0.179917,-0.705556 -0.596195,-0.705556 -0.275167,0 -0.515056,0.116417 -0.673806,0.222251 l 0.112889,0.197555 c 0.134055,-0.08467 0.313972,-0.176389 0.511528,-0.176389 0.278694,0 0.352778,0.208139 0.356306,0.423334 -0.733779,0.08114 -1.058334,0.261056 -1.058334,0.645584 0,0.310444 0.218722,0.486833 0.504472,0.486833 z m 0.08114,-0.239889 c -0.165806,0 -0.299861,-0.07408 -0.299861,-0.264583 0,-0.22225 0.194028,-0.352778 0.772584,-0.419806 v 0.462139 c -0.165806,0.148167 -0.306917,0.22225 -0.472723,0.22225 z"
         style="font-style:normal;-inkscape-font-specification:'Source Sans 3, '"
         id="path434" />
      <path
         d="m 83.596017,57.872292 c 0.116417,0 0.229306,-0.02822 0.321028,-0.07408 l -0.05997,-0.204611 c -0.06703,0.03175 -0.134056,0.04233 -0.194028,0.04233 -0.197556,0 -0.264584,-0.119945 -0.264584,-0.328084 v -0.945445 h 0.46214 v -0.236361 h -0.46214 v -0.550334 h -0.243416 l -0.03528,0.550334 -0.268112,0.01764 v 0.218722 h 0.254001 v 0.938389 c 0,0.342195 0.123472,0.571501 0.490361,0.5715 z"
         style="font-style:normal;-inkscape-font-specification:'Source Sans 3, '"
         id="path436" />
    </g>
  </g>
</svg>
